<svg width="40" height="40" viewBox="0 0 40 40" fill="none" xmlns="http://www.w3.org/2000/svg">
<path d="M36.3883 10.4526V29.5476L20.0001 39.0951L17.2852 17.2852L36.3883 10.4526Z" fill="#FFB14E"/>
<path d="M20.0001 17.2852V39.0951L3.61182 29.5476V10.4526L20.0001 17.2852Z" fill="#FF9356"/>
<path d="M28.1946 5.67884L23.5104 13.2313L11.8055 15.2263L3.61182 10.4526L20.0001 0.90509L28.1946 5.67884Z" fill="#FFB14E"/>
<path d="M36.3882 10.4526L20 20.0001L11.8054 15.2263L28.1946 5.67883L36.3882 10.4526Z" fill="#FFD86C"/>
<path d="M37.2922 10.4368C37.2917 10.4077 37.2898 10.3786 37.2865 10.3498C37.2854 10.3408 37.2847 10.3316 37.2833 10.3227C37.2781 10.2876 37.2714 10.2527 37.2622 10.2185C37.2611 10.214 37.2594 10.2098 37.2581 10.2053C37.2496 10.1755 37.2394 10.1461 37.2279 10.1173C37.2243 10.108 37.2203 10.0989 37.2163 10.0898C37.2049 10.0636 37.1922 10.0381 37.1783 10.013C37.1747 10.0068 37.1716 10.0003 37.168 9.99414C37.1497 9.96281 37.1295 9.93242 37.1072 9.90328C37.1055 9.90102 37.1034 9.89883 37.1017 9.89656C37.0816 9.87078 37.0598 9.84609 37.0367 9.82234C37.0304 9.81586 37.0237 9.80953 37.0172 9.80313C36.9969 9.78352 36.9755 9.76477 36.9531 9.7468C36.9462 9.74117 36.9395 9.73539 36.9324 9.73008C36.9043 9.70891 36.8751 9.68875 36.8438 9.67062L20.4555 0.123047C20.174 -0.0410156 19.826 -0.0410156 19.5445 0.123047L3.15607 9.67055C3.12482 9.68875 3.09561 9.70883 3.06748 9.73C3.06029 9.73531 3.05373 9.74125 3.04678 9.74672C3.02436 9.76461 3.00295 9.78336 2.98264 9.80305C2.976 9.80937 2.96951 9.8157 2.96318 9.82227C2.94014 9.84594 2.91826 9.8707 2.89818 9.89648C2.89639 9.89875 2.89436 9.90094 2.89264 9.9032C2.87037 9.93234 2.85029 9.96273 2.83186 9.99406C2.82826 10.0002 2.82506 10.0067 2.82162 10.013C2.80771 10.038 2.79498 10.0636 2.78357 10.0897C2.77959 10.0988 2.77561 10.108 2.77193 10.1172C2.76045 10.1461 2.75029 10.1754 2.74178 10.2052C2.74053 10.2097 2.73881 10.214 2.73764 10.2184C2.7285 10.2527 2.72178 10.2875 2.71662 10.3226C2.71537 10.3316 2.71451 10.3407 2.71342 10.3498C2.71006 10.3787 2.70818 10.4076 2.70764 10.4367C2.70756 10.442 2.70654 10.4471 2.70654 10.4525V29.5475C2.70654 29.8696 2.87764 30.1673 3.15592 30.3295L19.5444 39.877C19.547 39.8785 19.5497 39.8794 19.5523 39.8809C19.5847 39.8993 19.6179 39.9162 19.6526 39.9306C19.6529 39.9308 19.6533 39.9309 19.6538 39.9311C19.6865 39.9447 19.7204 39.9558 19.755 39.9655C19.7637 39.9679 19.7725 39.9701 19.7813 39.9723C19.8083 39.979 19.8359 39.9844 19.8638 39.9887C19.8731 39.9902 19.8823 39.9919 19.8917 39.9929C19.9272 39.9971 19.9632 39.9999 19.9998 39.9999C20.0365 39.9999 20.0725 39.9971 20.1079 39.9929C20.1172 39.9918 20.1265 39.9901 20.1358 39.9887C20.1638 39.9845 20.1913 39.979 20.2183 39.9723C20.2271 39.9701 20.2359 39.968 20.2447 39.9655C20.2793 39.9558 20.3131 39.9447 20.3458 39.9311C20.3462 39.9309 20.3466 39.9309 20.3471 39.9306C20.3818 39.9162 20.4151 39.8993 20.4473 39.8809C20.45 39.8794 20.4526 39.8784 20.4553 39.877L36.8437 30.3295C37.122 30.1673 37.2932 29.8695 37.2932 29.5475V10.4525C37.2933 10.4472 37.2924 10.4422 37.2922 10.4368ZM20 18.9527L13.6036 15.2263L28.1942 6.72617L34.5907 10.4526L20 18.9527ZM20 1.95234L26.3964 5.67875L11.8058 14.1789L5.40936 10.4526L20 1.95234ZM35.4834 29.0274L20.905 37.5205V33.8462C20.905 33.3464 20.4998 32.9412 20 32.9412C19.5001 32.9412 19.095 33.3464 19.095 33.8462V37.5205L4.51654 29.0274V12.0271L11.3605 16.0143C11.361 16.0145 11.3615 16.0148 11.362 16.0152L19.0951 20.5202V30.2264C19.0951 30.7263 19.5002 31.1314 20.0001 31.1314C20.4999 31.1314 20.9051 30.7263 20.9051 30.2264V20.5202L35.4835 12.0271L35.4834 29.0274Z" fill="#01121C"/>
<path d="M25.7567 22.4327C25.9248 22.7212 26.228 22.8823 26.5395 22.8823C26.6942 22.8823 26.8509 22.8427 26.9942 22.7591L30.305 20.8303C30.7368 20.5787 30.8829 20.0247 30.6314 19.5928C30.3798 19.1609 29.8257 19.0149 29.3939 19.2664L26.0831 21.1952C25.6513 21.4468 25.5051 22.0008 25.7567 22.4327Z" fill="#01121C"/>
</svg>
