<svg width="40" height="40" viewBox="0 0 40 40" fill="none" xmlns="http://www.w3.org/2000/svg">
<g clip-path="url(#clip0_15_363)">
<path d="M39.0218 21.2514L20.1449 2.40348C19.3674 1.66453 18.4521 1.08578 17.4512 0.70021C16.4777 0.267331 15.4287 0.0293917 14.3637 -0.000162948H3.37741C2.93411 -0.00383886 2.49475 0.0832403 2.08637 0.255716C1.67799 0.428191 1.30922 0.682414 1.00277 1.00274C0.682444 1.30919 0.428221 1.67796 0.255746 2.08634C0.0832708 2.49472 -0.00380834 2.93408 -0.00013243 3.37738V14.3596C0.0293154 15.4246 0.26726 16.4735 0.700241 17.447C1.08144 18.4428 1.66091 19.3507 2.40351 20.1159L21.2804 39.0218C21.5884 39.3384 21.958 39.5885 22.3665 39.7568C22.7749 39.925 23.2134 40.0077 23.6551 39.9998C24.1004 40.0031 24.542 39.9184 24.9544 39.7506C25.3669 39.5827 25.7422 39.3351 26.0587 39.0218L39.0218 26.0338C39.3384 25.7258 39.5886 25.3562 39.7568 24.9478C39.925 24.5394 40.0077 24.1008 39.9999 23.6592C40.0037 23.2132 39.9192 22.7708 39.7514 22.3576C39.5835 21.9443 39.3356 21.5684 39.0218 21.2514ZM8.44993 11.8274C7.55449 11.8263 6.69603 11.4701 6.06286 10.837C5.42969 10.2038 5.07349 9.34534 5.07239 8.4499C5.07349 7.55446 5.42969 6.696 6.06286 6.06283C6.69603 5.42966 7.55449 5.07346 8.44993 5.07236C9.34537 5.07346 10.2038 5.42966 10.837 6.06283C11.4702 6.696 11.8264 7.55446 11.8275 8.4499C11.8264 9.34534 11.4702 10.2038 10.837 10.837C10.2038 11.4701 9.34537 11.8263 8.44993 11.8274ZM21.0028 26.0877C20.6431 26.4465 20.1557 26.6481 19.6476 26.6481C19.1395 26.6481 18.6522 26.4465 18.2924 26.0877L11.5788 19.3741C11.3863 19.1995 11.2313 18.9877 11.1231 18.7514C11.0149 18.5151 10.9559 18.2593 10.9495 17.9995C10.9432 17.7397 10.9897 17.4814 11.0862 17.2401C11.1827 16.9988 11.3272 16.7796 11.511 16.5959C11.6947 16.4121 11.9139 16.2676 12.1551 16.1711C12.3964 16.0746 12.6548 16.0281 12.9146 16.0345C13.1744 16.0408 13.4302 16.0999 13.6664 16.208C13.9027 16.3162 14.1146 16.4712 14.2891 16.6637L21.0028 23.3774C21.181 23.5552 21.3223 23.7664 21.4188 23.999C21.5152 24.2315 21.5649 24.4808 21.5649 24.7325C21.5649 24.9843 21.5152 25.2336 21.4188 25.4661C21.3223 25.6986 21.181 25.9099 21.0028 26.0877ZM30.9489 25.147C30.7711 25.3251 30.5598 25.4665 30.3273 25.563C30.0948 25.6594 29.8455 25.7091 29.5937 25.7091C29.342 25.7091 29.0927 25.6594 28.8602 25.563C28.6276 25.4665 28.4164 25.3251 28.2386 25.147L17.0492 13.9576C16.7182 13.5926 16.5404 13.1143 16.5524 12.6218C16.5644 12.1293 16.7654 11.6602 17.1138 11.3119C17.4622 10.9635 17.9312 10.7625 18.4237 10.7504C18.9163 10.7384 19.3945 10.9163 19.7595 11.2472L30.9489 22.4366C31.3058 22.7973 31.505 23.2849 31.5027 23.7923C31.5004 24.2997 31.2967 24.7855 30.9365 25.1428L30.9489 25.147Z" fill="#4CDBC4"/>
</g>
<defs>
<clipPath id="clip0_15_363">
<rect width="40" height="40" fill="white"/>
</clipPath>
</defs>
</svg>
