<svg width="124" height="124" viewBox="0 0 124 124" fill="none" xmlns="http://www.w3.org/2000/svg">
<g clip-path="url(#clip0_5_230)">
<path d="M62 124C96.2417 124 124 96.2417 124 62C124 27.7583 96.2417 0 62 0C27.7583 0 0 27.7583 0 62C0 96.2417 27.7583 124 62 124Z" fill="#4CDBC4"/>
<path d="M16.0858 103.643C27.4118 116.14 43.7905 124 62 124C80.2094 124 96.5882 116.14 107.914 103.643H16.0858Z" fill="#2C9984"/>
<path d="M103.374 36.4434V103.643H20.626V36.4434L62 22.8961L103.374 36.4434Z" fill="white"/>
<path d="M103.35 97.4181H20.626V103.642H103.35V97.4181Z" fill="#E6E9EE"/>
<path d="M93.9519 58.241H30.048V103.643H93.9519V58.241Z" fill="#324A5E"/>
<path d="M87.5567 66.7355H37.2244V103.667H87.5567V66.7355Z" fill="#FFD05B"/>
<path d="M87.5323 76.4748V75.9867H77.7197V66.7355H77.3291V75.9867H67.3701V66.7355H66.9795V75.9867H57.0205V66.7355H56.6299V75.9867H46.6709V66.7355H46.2803V75.9867H37.2244V76.4748H46.2803V84.9449H37.2244V85.4331H46.2803V93.9032H37.2244V94.3914H46.2803V103.447H46.6709V94.3914H56.6299V103.447H57.0205V94.3914H66.9795V103.447H67.3701V94.3914H77.3291V103.447H77.7197V94.3914H87.5323V93.9032H77.7197V85.4331H87.5323V84.9449H77.7197V76.4748H87.5323ZM56.6299 93.9032H46.6709V85.4331H56.6299V93.9032ZM56.6299 84.9449H46.6709V76.4748H56.6299V84.9449ZM66.9795 93.9032H57.0205V85.4331H66.9795V93.9032ZM66.9795 84.9449H57.0205V76.4748H66.9795V84.9449ZM77.3291 93.9032H67.3701V85.4331H77.3291V93.9032ZM77.3291 84.9449H67.3701V76.4748H77.3291V84.9449Z" fill="#F9B54C"/>
<path d="M47.2567 40.715H29.7795V46.9638H47.2567V40.715Z" fill="#E6E9EE"/>
<path d="M70.7386 40.715H53.2614V46.9638H70.7386V40.715Z" fill="#E6E9EE"/>
<path d="M94.1961 40.715H76.7189V46.9638H94.1961V40.715Z" fill="#E6E9EE"/>
<path d="M83.7976 66.7355H81.1126V67.9315H83.7976V66.7355Z" fill="#E6E9EE"/>
<path d="M73.5701 66.7355H70.8851V67.9315H73.5701V66.7355Z" fill="#E6E9EE"/>
<path d="M63.3425 66.7355H60.6575V67.9315H63.3425V66.7355Z" fill="#E6E9EE"/>
<path d="M53.115 66.7355H50.4299V67.9315H53.115V66.7355Z" fill="#E6E9EE"/>
<path d="M42.8874 66.7355H40.2024V67.9315H42.8874V66.7355Z" fill="#E6E9EE"/>
<path d="M83.7976 76.426H81.1126V77.6221H83.7976V76.426Z" fill="#E6E9EE"/>
<path d="M73.5701 76.426H70.8851V77.6221H73.5701V76.426Z" fill="#E6E9EE"/>
<path d="M63.3425 76.426H60.6575V77.6221H63.3425V76.426Z" fill="#E6E9EE"/>
<path d="M53.115 76.426H50.4299V77.6221H53.115V76.426Z" fill="#E6E9EE"/>
<path d="M42.8874 76.426H40.2024V77.6221H42.8874V76.426Z" fill="#E6E9EE"/>
<path d="M83.7976 85.4087H81.1126V86.6048H83.7976V85.4087Z" fill="#E6E9EE"/>
<path d="M73.5701 85.4087H70.8851V86.6048H73.5701V85.4087Z" fill="#E6E9EE"/>
<path d="M63.3425 85.4087H60.6575V86.6048H63.3425V85.4087Z" fill="#E6E9EE"/>
<path d="M53.115 85.4087H50.4299V86.6048H53.115V85.4087Z" fill="#E6E9EE"/>
<path d="M42.8874 85.4087H40.2024V86.6048H42.8874V85.4087Z" fill="#E6E9EE"/>
<path d="M83.7976 94.3669H81.1126V95.563H83.7976V94.3669Z" fill="#E6E9EE"/>
<path d="M73.5701 94.3669H70.8851V95.563H73.5701V94.3669Z" fill="#E6E9EE"/>
<path d="M63.3425 94.3669H60.6575V95.563H63.3425V94.3669Z" fill="#E6E9EE"/>
<path d="M53.115 94.3669H50.4299V95.563H53.115V94.3669Z" fill="#E6E9EE"/>
<path d="M42.8874 94.3669H40.2024V95.563H42.8874V94.3669Z" fill="#E6E9EE"/>
</g>
<defs>
<clipPath id="clip0_5_230">
<rect width="124" height="124" fill="white"/>
</clipPath>
</defs>
</svg>
