<svg width="40" height="40" viewBox="0 0 40 40" fill="none" xmlns="http://www.w3.org/2000/svg">
<path d="M39.4665 10.9174L29.1736 0.53214C29.0022 0.362083 28.7989 0.227541 28.5753 0.13623C28.3518 0.044919 28.1124 -0.00136546 27.871 3.06684e-05C27.3897 0.00205749 26.9284 0.19316 26.5867 0.53214L0.533526 26.4954C0.191806 26.8392 0 27.3042 0 27.789C0 28.2737 0.191806 28.7388 0.533526 29.0826L10.9181 39.4679C11.0895 39.6379 11.2928 39.7725 11.5164 39.8638C11.7399 39.9551 11.9793 40.0014 12.2207 40C12.7021 39.9979 13.1633 39.8068 13.5051 39.4679L18.6973 34.2752L34.2742 18.6973L39.4665 13.5046C39.8082 13.1608 40 12.6958 40 12.211C40 11.7263 39.8082 11.2612 39.4665 10.9174ZM32.9715 14.8073L31.6689 13.5046C31.3251 13.1629 30.8601 12.971 30.3754 12.971C29.8907 12.971 29.4257 13.1629 29.0819 13.5046C28.9099 13.6752 28.7734 13.8781 28.6803 14.1017C28.5872 14.3253 28.5392 14.5651 28.5392 14.8073C28.5392 15.0496 28.5872 15.2894 28.6803 15.513C28.7734 15.7366 28.9099 15.9395 29.0819 16.1101L30.3846 17.4128L27.7792 20L23.8896 16.1101C23.5386 15.8095 23.0872 15.6524 22.6254 15.6703C22.1636 15.6881 21.7256 15.8795 21.3989 16.2063C21.0721 16.5331 20.8807 16.9711 20.8629 17.4329C20.845 17.8947 21.0021 18.3462 21.3027 18.6973L25.1923 22.5872L22.587 25.1927L21.3027 23.8899C20.9572 23.5444 20.4886 23.3503 20 23.3503C19.5114 23.3503 19.0428 23.5444 18.6973 23.8899C18.3519 24.2354 18.1578 24.704 18.1578 25.1927C18.1578 25.6813 18.3519 26.1499 18.6973 26.4954L20 27.7798L17.413 30.3853L13.5051 26.4954C13.1613 26.1537 12.6963 25.9618 12.2116 25.9618C11.7269 25.9618 11.2619 26.1537 10.9181 26.4954C10.5764 26.8392 10.3846 27.3042 10.3846 27.789C10.3846 28.2737 10.5764 28.7388 10.9181 29.0826L14.8077 32.9725L12.2207 35.578L4.42315 27.7798L27.7792 4.42204L35.5768 12.2202L32.9715 14.8073Z" fill="#4CDBC4"/>
</svg>
